<svg id="light-logo" xmlns="http://www.w3.org/2000/svg" width="298.68" height="165.58" viewBox="0 0 298.68 165.58">
  <g id="Layer_1" data-name="Layer 1">
    <path id="Path_1" data-name="Path 1" d="M164,.57c24.69,0,49.39-.49,74.06.22,24.05.69,45.61,17.13,51.24,39.7,4.66,18.68-.77,34.62-14.25,48a55,55,0,0,1-15.11,10.38c-.32.15-.62.34-1.11.6l39.85,59.87c-.29.22-.38.35-.47.35-8.47-.07-17,.26-25.4-.33-13.6-.94-24.38-7.26-32-18.66l-20-30a2.7,2.7,0,0,0-3.11-1.47c-9.17,1.44-15,8.1-15,17.34,0,5.71-.18,11.42,0,17.13.37,9.29-6.56,16.45-14.82,18.28a15.76,15.76,0,0,1-3.27.43H163.92V160.2c0-18.85-.06-37.71,0-56.56,0-9.93,2.74-18.91,10.27-25.89a38.93,38.93,0,0,1,14-8.3c7.17-2.44,14.46-4.56,22.14-7-.27,8.37-.52,16.23-.79,24.66A104.853,104.853,0,0,0,220,82.85c1.39-.74,2.45-2.58,3.1-4.16,2.71-6.64,5.26-13.35,7.77-20.07a2.91,2.91,0,0,1,2.3-2q10-2.7,20-5.52a16.11,16.11,0,0,0,10.6-9.31c-4.43-4-9.61-5-15.27-4.19-6.75,1-13.5,2-20.27,2.83a3.6,3.6,0,0,1-2.5-.78c-5.25-4.71-10.44-9.5-15.61-14.3a9.89,9.89,0,0,0-7.67-2.95c-2.74.2-5.48.51-8.57.8l11.51,20.71L83.12,49.05A33.56,33.56,0,0,0,50.9,82.36v.43c0,14.3,2.63,21.11,7.89,28.44A27.33,27.33,0,0,0,82,123a26,26,0,0,0,18.62-7.51,24.49,24.49,0,0,0,5.45-8.16c3.3-7.87,9.87-9.91,17.81-13l32.59-12.87c-1.47,20.64-8.76,55.54-21.92,67s-31,17.12-53.46,17.12q-37.77,0-59.43-22.13T0,82.79q0-38.4,21.45-60.6T79.92,0Z" fill="#b29d66"/>
  </g>
</svg>
