<svg id="Pale_Beige_Logo" data-name="Pale Beige Logo" xmlns="http://www.w3.org/2000/svg" width="764.869" height="424.022" viewBox="0 0 764.869 424.022">
  <g id="Layer_1" data-name="Layer 1" transform="translate(0 0)">
    <path id="Path_25" data-name="Path 25" d="M419.976,1.46C483.2,1.46,546.455.2,609.631,2.023c61.588,1.767,116.8,43.867,131.217,101.665,11.933,47.836-1.972,88.656-36.492,122.92a140.844,140.844,0,0,1-38.694,26.581c-.819.384-1.588.871-2.842,1.536L764.869,408.043c-.743.563-.973.9-1.2.9-21.69-.179-43.534.666-65.045-.845-34.827-2.407-62.433-18.592-81.947-47.785l-51.217-76.825a6.914,6.914,0,0,0-7.964-3.764c-23.483,3.688-38.412,20.743-38.412,44.4,0,14.622-.461,29.245,0,43.867.947,23.79-16.8,42.126-37.952,46.812a40.361,40.361,0,0,1-8.374,1.1H419.771v-5.659c0-48.272-.154-96.569,0-144.841,0-25.429,7.017-48.425,26.3-66.3a99.693,99.693,0,0,1,35.852-21.255c18.361-6.248,37.03-11.677,56.7-17.926-.691,21.434-1.332,41.562-2.023,63.15a268.51,268.51,0,0,0,26.786-10.909c3.56-1.9,6.274-6.607,7.939-10.653,6.94-17,13.47-34.187,19.9-51.4a7.452,7.452,0,0,1,5.89-5.122q25.608-6.914,51.216-14.136a41.255,41.255,0,0,0,27.145-23.841c-11.345-10.243-24.61-12.8-39.1-10.73-17.286,2.561-34.571,5.122-51.908,7.247a9.219,9.219,0,0,1-6.4-2c-13.444-12.062-26.735-24.328-39.975-36.62a25.327,25.327,0,0,0-19.642-7.554c-7.017.512-14.033,1.306-21.946,2.049l29.475,53.035L212.856,125.609a85.941,85.941,0,0,0-82.51,85.3v1.1c0,36.62,6.735,54.059,20.2,72.83a69.988,69.988,0,0,0,59.437,30.141,66.581,66.581,0,0,0,47.683-19.232,62.715,62.715,0,0,0,13.956-20.9c8.451-20.154,25.275-25.378,45.608-33.291l83.457-32.958c-3.764,52.856-22.433,142.228-56.133,171.576s-79.386,43.841-136.9,43.841q-96.723,0-152.19-56.671T0,212.011Q0,113.675,54.93,56.825T204.662,0Z" fill="#dccab2"/>
  </g>
</svg>
